<svg width="500" height="500" viewBox="0 0 500 500" fill="none" xmlns="http://www.w3.org/2000/svg">
<rect width="500" height="500" fill="black"/>
<path d="M140.81 182.693C139.836 184.436 139.349 188.614 139.349 195.227V219.064C139.349 226.292 135.607 232.572 128.122 237.903C120.381 243.491 110.898 246.285 99.6712 246.285C84.0872 246.285 71.6559 241.389 62.3773 231.598C53.4062 222.268 48.9207 210.375 48.9207 195.919C48.9207 180.54 53.4831 167.724 62.6079 157.471C72.8093 145.937 86.8554 140.17 104.746 140.17C116.691 140.17 126.149 142.477 133.12 147.091L131.89 169.774L131.275 169.928C129.481 166.801 125.944 164.238 120.663 162.239C115.64 160.342 110.36 159.394 104.823 159.394C99.338 159.394 94.5192 160.265 90.3669 162.008C86.2659 163.751 82.78 166.237 79.9092 169.467C73.8602 176.08 70.8357 184.82 70.8357 195.688C70.8357 205.172 73.5014 212.784 78.8327 218.526C84.1641 224.216 91.0333 227.061 99.4405 227.061C108.719 227.061 114.973 224.652 118.203 219.833C119.228 218.295 119.741 216.552 119.741 214.604V201.84H109.821C104.49 201.84 101.594 202.301 101.132 203.224L100.901 203.147L100.209 183.077C101.645 183.487 107.463 183.692 117.665 183.692H126.738C132.377 183.692 136.991 183.308 140.579 182.539L140.81 182.693ZM177.642 235.75C177.642 240.159 177.745 243.029 177.95 244.362H158.803V164.007H177.642V169.928C182 164.956 186.562 162.469 191.33 162.469C196.148 162.469 199.942 163.059 202.71 164.238L201.326 184.923L201.018 185.153C199.224 181.975 195.508 180.386 189.869 180.386C187.716 180.386 185.511 181.129 183.256 182.616C181.051 184.051 179.18 185.974 177.642 188.383V235.75ZM209.631 141.093C213.732 134.685 218.012 129.046 222.472 124.176L239.004 137.171C236.8 139.888 234.749 142.554 232.853 145.168C232.853 145.168 230.879 147.962 226.932 153.55L209.631 141.093ZM229.854 235.75C229.854 240.159 229.956 243.029 230.161 244.362H210.63V164.007H229.854V235.75ZM289.986 172.85C289.575 174.337 289.37 178.079 289.37 184.077V190.844H270.839V244.362H252V190.844H240.696C240.747 187.46 240.799 184.461 240.85 181.847L241.004 173.619V172.85H252V168.083C252 155.78 254.87 145.886 260.612 138.401C266.61 130.661 274.863 126.79 285.372 126.79C289.832 126.79 292.779 127.098 294.215 127.713L294.292 147.014L294.138 147.398C292.19 145.45 289.704 144.476 286.679 144.476C283.706 144.476 281.296 144.989 279.451 146.014C277.605 146.988 276.042 148.398 274.76 150.243C272.146 153.934 270.839 158.984 270.839 165.391V172.85H289.986ZM300.366 204.838C300.366 198.841 301.392 193.279 303.442 188.152C305.493 183.026 308.389 178.54 312.131 174.696C320.128 166.545 330.586 162.469 343.504 162.469C354.423 162.469 363.189 166.084 369.802 173.312C376.313 180.283 379.568 189.049 379.568 199.61C379.568 203.659 379.26 206.428 378.645 207.914C373.519 209.35 363.087 210.067 347.349 210.067H320.282C321.615 215.552 324.716 219.833 329.586 222.909C334.456 225.933 340.787 227.445 348.579 227.445C356.73 227.445 363.727 225.984 369.571 223.062C371.109 222.294 372.263 221.576 373.032 220.909C372.929 223.062 372.801 225.267 372.647 227.522L371.801 239.518C367.905 242.184 361.6 244.029 352.885 245.054C350.322 245.362 347.862 245.516 345.503 245.516C332.483 245.516 321.717 241.722 313.208 234.135C304.647 226.497 300.366 216.731 300.366 204.838ZM359.114 195.15C357.012 184.128 351.014 178.617 341.12 178.617C333.328 178.617 327.408 181.975 323.358 188.691C322.127 190.741 321.179 192.997 320.513 195.457C321.743 195.509 323.255 195.56 325.049 195.611H330.74C332.636 195.662 334.456 195.688 336.199 195.688H340.582C343.197 195.688 345.76 195.662 348.272 195.611L354.577 195.38C356.269 195.329 357.781 195.252 359.114 195.15Z" fill="white"/>
<path d="M189.933 246.207L188.472 268.814L187.933 268.968C184.14 263.278 177.681 259.587 168.556 257.895C165.685 257.331 162.917 257.05 160.251 257.05C157.637 257.05 155.381 257.28 153.485 257.742C151.639 258.203 150.05 258.869 148.717 259.741C145.898 261.586 144.488 263.996 144.488 266.969C144.488 270.865 145.718 273.787 148.179 275.735C151.255 278.093 156.355 279.759 163.481 280.733C170.607 281.656 176.322 282.937 180.629 284.578C184.935 286.218 188.472 288.294 191.24 290.806C196.469 295.523 199.083 302.187 199.083 310.799C199.083 322.077 194.828 330.766 186.319 336.866C179.039 342.095 169.863 344.709 158.79 344.709C149.871 344.709 141.053 343.018 132.339 339.634C129.468 338.507 126.956 337.199 124.803 335.713L125.649 310.03L125.956 309.799C132.313 320.77 142.745 326.255 157.253 326.255C167.556 326.255 174.374 323.768 177.707 318.796C178.834 317.104 179.398 315.233 179.398 313.183C179.398 311.081 179.065 309.364 178.399 308.031C177.732 306.647 176.63 305.468 175.092 304.494C172.119 302.546 167.121 301.238 160.098 300.572C153.075 299.906 147.333 298.65 142.873 296.804C138.413 294.959 134.851 292.677 132.185 289.96C127.366 285.039 124.957 278.17 124.957 269.353C124.957 260.228 128.161 252.846 134.569 247.207C141.079 241.466 149.845 238.595 160.867 238.595C171.939 238.595 181.628 241.132 189.933 246.207ZM229.466 334.175C229.466 338.584 229.568 341.454 229.773 342.787H210.627V232.828H229.466V268.43C236.079 263.406 242.897 260.894 249.92 260.894C258.532 260.894 265.453 263.739 270.681 269.43C275.808 275.12 278.371 282.655 278.371 292.037V322.641C278.371 331.304 278.499 336.507 278.755 338.25C279.012 339.993 279.345 341.121 279.755 341.634C280.216 342.146 280.601 342.608 280.908 343.018L280.755 343.325C276.602 342.967 273.578 342.787 271.681 342.787H266.222C264.53 342.787 262.3 342.864 259.532 343.018V298.496C259.532 291.421 257.968 286.193 254.841 282.809C252.483 280.246 249.279 278.965 245.229 278.965C239.231 278.965 233.977 282.425 229.466 289.345V334.175ZM285.147 303.033C285.147 297.394 286.095 292.011 287.992 286.885C289.94 281.707 292.708 277.196 296.297 273.351C304.14 265.047 314.316 260.894 326.824 260.894C339.281 260.894 349.174 264.816 356.505 272.659C363.528 280.144 367.04 289.858 367.04 301.802C367.04 313.747 363.426 323.64 356.198 331.484C348.559 339.788 338.435 343.941 325.824 343.941C312.803 343.941 302.602 339.865 295.22 331.714C288.505 324.281 285.147 314.721 285.147 303.033ZM303.832 302.571C303.832 305.801 304.371 308.928 305.447 311.952C306.524 314.977 308.061 317.566 310.061 319.719C314.316 324.384 319.903 326.716 326.824 326.716C333.232 326.716 338.281 324.435 341.972 319.872C345.56 315.464 347.355 309.722 347.355 302.648C347.355 295.471 345.509 289.679 341.818 285.27C337.871 280.554 332.463 278.196 325.593 278.196C318.622 278.196 313.162 280.707 309.215 285.731C305.626 290.345 303.832 295.958 303.832 302.571ZM393.654 341.172V363.779C393.654 368.188 393.757 371.059 393.962 372.392H374.815V262.432H393.654V267.43C399.857 263.073 405.804 260.894 411.494 260.894C417.184 260.894 422.234 261.689 426.642 263.278C431.051 264.867 434.921 267.328 438.253 270.66C445.584 277.888 449.249 288.192 449.249 301.572C449.249 310.44 447.173 318.36 443.021 325.332C439.484 331.227 434.588 335.943 428.334 339.481C422.798 342.608 416.8 344.171 410.341 344.171C403.881 344.171 398.319 343.172 393.654 341.172ZM393.654 321.795C397.55 325.076 402.6 326.716 408.803 326.716C418.953 326.716 425.514 321.82 428.488 312.029C429.513 308.697 430.026 305.134 430.026 301.341C430.026 297.496 429.667 294.446 428.949 292.19C428.231 289.884 427.283 287.91 426.104 286.27C424.976 284.578 423.695 283.194 422.259 282.117C420.824 280.989 419.363 280.092 417.876 279.426C415.262 278.247 412.571 277.657 409.802 277.657C407.034 277.657 404.163 278.298 401.19 279.58C398.217 280.861 395.705 282.579 393.654 284.732V321.795Z" fill="white"/>
<rect x="177.165" y="116.142" width="49.2126" height="49.2126" fill="black"/>
<path d="M219.488 159.449L188.977 129.403L201.339 116.971L219.488 110.236L237.638 116.971L250 129.403L219.488 159.449Z" fill="#FF9900"/>
<path d="M219.488 159.449L188.977 129.403L201.339 116.971M219.488 159.449L250 129.403L237.638 116.971M219.488 159.449V125.259M219.488 159.449L201.339 116.971M219.488 159.449L237.638 116.971M237.638 116.971L219.488 110.236L201.339 116.971M237.638 116.971L219.488 125.259M201.339 116.971L219.488 125.259" stroke="black" stroke-width="1.9685"/>
<path d="M99.1976 261.178C101.722 261.178 104.144 261.813 106.464 263.082C108.784 264.337 110.604 266.145 111.924 268.503C113.256 270.861 113.923 273.328 113.923 275.904C113.923 278.467 113.269 280.915 111.962 283.247C110.668 285.567 108.854 287.38 106.522 288.687C104.202 289.982 101.761 290.629 99.1976 290.629C96.6344 290.629 94.1866 289.982 91.8541 288.687C89.5345 287.38 87.7211 285.567 86.4138 283.247C85.1194 280.915 84.4723 278.467 84.4723 275.904C84.4723 273.328 85.1323 270.861 86.4523 268.503C87.7851 266.145 89.6114 264.337 91.931 263.082C94.2507 261.813 96.6729 261.178 99.1976 261.178ZM99.2168 264.062C97.1919 264.062 95.2503 264.568 93.392 265.581C91.5337 266.593 90.0663 268.048 88.9898 269.944C87.9261 271.841 87.3942 273.828 87.3942 275.904C87.3942 277.967 87.9133 279.934 88.9514 281.805C90.0023 283.677 91.4633 285.138 93.3344 286.188C95.2055 287.239 97.1663 287.765 99.2168 287.765C101.28 287.765 103.241 287.239 105.099 286.188C106.97 285.138 108.431 283.677 109.482 281.805C110.533 279.934 111.059 277.967 111.059 275.904C111.059 273.828 110.52 271.841 109.444 269.944C108.38 268.048 106.913 266.593 105.042 265.581C103.183 264.568 101.242 264.062 99.2168 264.062ZM92.5462 283.785V268.157H95.7181C98.6914 268.157 100.357 268.169 100.716 268.195C101.767 268.285 102.581 268.496 103.158 268.829C103.747 269.15 104.234 269.65 104.619 270.329C105.016 270.995 105.215 271.739 105.215 272.559C105.215 273.687 104.843 274.654 104.1 275.462C103.369 276.256 102.337 276.75 101.005 276.942C101.479 277.121 101.844 277.32 102.1 277.538C102.357 277.743 102.709 278.14 103.158 278.73C103.273 278.883 103.657 279.518 104.311 280.633L106.157 283.785H102.235L100.928 281.248C100.043 279.543 99.3129 278.473 98.7362 278.038C98.1595 277.589 97.429 277.365 96.5447 277.365H95.7181V283.785H92.5462ZM95.7181 274.904H97.0061C98.8387 274.904 99.9729 274.834 100.409 274.693C100.857 274.552 101.21 274.308 101.466 273.962C101.722 273.603 101.85 273.2 101.85 272.751C101.85 272.315 101.722 271.931 101.466 271.598C101.222 271.252 100.87 271.008 100.409 270.867C99.9473 270.713 98.8131 270.636 97.0061 270.636H95.7181V274.904Z" fill="white"/>
<rect x="210.629" y="163.386" width="19.685" height="179.134" fill="white"/>
<path d="M156.496 237.538C162.074 236.882 179.331 239.37 187.992 244.095C196.654 248.819 188.32 241.475 185.039 238.522" stroke="black" stroke-width="1.9685"/>
<path d="M156.496 236.324C162.074 235.668 179.331 238.157 187.992 242.881C196.654 247.606 188.32 240.262 185.039 237.309" stroke="black" stroke-width="1.9685"/>
<path d="M199.803 342.519C206.89 342.519 210.958 328.084 210.63 320.866L213.583 342.519H199.803Z" fill="white"/>
</svg>
