<svg width="696" height="696" viewBox="0 0 696 696" fill="none" xmlns="http://www.w3.org/2000/svg">
<path d="M254.061 65.2963C286.276 -21.7655 409.415 -21.7654 441.631 65.2964L476.657 159.953C486.786 187.325 508.367 208.906 535.739 219.035L630.395 254.061C717.457 286.276 717.457 409.415 630.395 441.631L535.739 476.657C508.367 486.786 486.786 508.367 476.657 535.739L441.631 630.395C409.415 717.457 286.276 717.457 254.061 630.395L219.035 535.739C208.906 508.367 187.325 486.786 159.953 476.657L65.2963 441.631C-21.7655 409.415 -21.7654 286.276 65.2964 254.061L159.953 219.035C187.325 208.906 208.906 187.325 219.035 159.953L254.061 65.2963Z" fill="#FF9900"/>
</svg>
